<?xml version="1.0" encoding="iso-8859-1"?>
<!-- Generator: Adobe Illustrator 19.0.0, SVG Export Plug-In . SVG Version: 6.00 Build 0)  -->
<svg version="1.1" id="Layer_1" xmlns="http://www.w3.org/2000/svg" xmlns:xlink="http://www.w3.org/1999/xlink" x="0px" y="0px"
	 viewBox="0 0 511.983 511.983" style="enable-background:new 0 0 511.983 511.983;" xml:space="preserve">
<path style="fill:#DA4453;" d="M93.06,474.573c-0.008,0-0.008,0-0.008,0c-11.343,0-21.944-6.094-27.655-15.873l-31.405-53.844
	c-0.953-1.625-1.453-3.484-1.453-5.375V272.862H21.187c-4.82,0-9.039-3.227-10.296-7.875c-1.258-4.656,0.758-9.57,4.921-12
	l362.05-211.219c4.891-2.852,10.453-4.359,16.094-4.359c11.344,0,21.952,6.078,27.655,15.875l85.997,147.409
	c8.906,15.241,3.734,34.874-11.5,43.764L109.161,470.198C104.263,473.057,98.7,474.573,93.06,474.573z"/>
<g>
	<path style="opacity:0.1;fill:#080808;enable-background:new    ;" d="M339.146,117.366c-1.5,5.703,1.906,11.531,7.593,13.031
		c5.688,1.5,11.53-1.906,13.029-7.601c1.5-5.695-1.905-11.531-7.592-13.03C346.473,108.274,340.646,111.672,339.146,117.366z"/>
	<path style="opacity:0.1;fill:#080808;enable-background:new    ;" d="M360.643,154.225c-1.5,5.695,1.906,11.531,7.594,13.031
		c5.703,1.492,11.531-1.906,13.031-7.609c1.5-5.695-1.906-11.531-7.594-13.022C367.971,145.124,362.143,148.522,360.643,154.225z"/>
	<path style="opacity:0.1;fill:#080808;enable-background:new    ;" d="M382.143,191.075c-1.5,5.695,1.906,11.531,7.594,13.031
		c5.703,1.5,11.531-1.906,13.031-7.602c1.5-5.703-1.906-11.531-7.594-13.031C389.471,181.974,383.643,185.38,382.143,191.075z"/>
	<path style="opacity:0.1;fill:#080808;enable-background:new    ;" d="M403.643,227.925c-1.5,5.695,1.906,11.531,7.593,13.031
		c5.703,1.5,11.531-1.906,13.031-7.602c1.499-5.695-1.906-11.531-7.594-13.031C410.971,218.824,405.143,222.23,403.643,227.925z"/>
</g>
<path style="fill:#F6BB42;" d="M446.001,211.551c-3.672,0-7.234-1.891-9.234-5.289l-54.311-93.09
	c-2.969-5.085-1.25-11.617,3.844-14.585s11.625-1.25,14.594,3.836l54.311,93.09c2.969,5.086,1.25,11.617-3.844,14.585
	C449.673,211.082,447.829,211.551,446.001,211.551z"/>
<g>
	<path style="fill:#434A54;" d="M185.166,251.3c-3.672,0-7.242-1.891-9.227-5.289c-2.968-5.086-1.25-11.617,3.844-14.586
		l128.988-75.255c5.078-2.969,11.609-1.25,14.578,3.843c2.969,5.086,1.25,11.617-3.828,14.586l-128.988,75.247
		C188.838,250.831,186.994,251.3,185.166,251.3z"/>
	<path style="fill:#434A54;" d="M206.666,288.157c-3.672,0-7.242-1.891-9.227-5.297c-2.961-5.092-1.25-11.615,3.844-14.584
		l128.988-75.256c5.078-2.969,11.608-1.25,14.577,3.844c2.969,5.086,1.25,11.617-3.827,14.585l-128.989,75.255
		C210.337,287.688,208.493,288.157,206.666,288.157z"/>
</g>
<path style="opacity:0.1;fill:#080808;enable-background:new    ;" d="M479.984,218.574H74.795l-58.983,34.413
	c-4.164,2.43-6.179,7.344-4.921,12c1.258,4.648,5.476,7.875,10.296,7.875h11.351v126.619c0,1.891,0.5,3.75,1.453,5.375
	l28.218,48.375h76.037l357.862-208.775c4.656-2.727,8.375-6.453,11.047-10.758C501.499,224.628,491.436,218.574,479.984,218.574z"/>
<path style="fill:#ED5564;" d="M479.984,239.909H31.999c-17.648,0-31.999,14.359-31.999,32v170.666
	c0,17.639,14.351,31.998,31.999,31.998h447.985c17.655,0,31.999-14.359,31.999-31.998V271.909
	C511.983,254.268,497.639,239.909,479.984,239.909z"/>
<g>
	<path style="fill:#DA4453;" d="M408.455,285.704c-4.187,4.156-4.187,10.906,0,15.078c4.156,4.172,10.906,4.172,15.078,0
		c4.171-4.172,4.171-10.922,0-15.078C419.361,281.532,412.611,281.532,408.455,285.704z"/>
	<path style="fill:#DA4453;" d="M408.455,328.36c-4.187,4.172-4.187,10.922,0,15.094c4.156,4.156,10.906,4.156,15.078,0
		c4.171-4.172,4.171-10.922,0-15.094C419.361,324.204,412.611,324.204,408.455,328.36z"/>
	<path style="fill:#DA4453;" d="M408.455,371.03c-4.187,4.172-4.187,10.922,0,15.078c4.156,4.172,10.906,4.172,15.078,0
		c4.171-4.156,4.171-10.906,0-15.078C419.361,366.858,412.611,366.858,408.455,371.03z"/>
</g>
<g>
	<path style="fill:#E6E9ED;" d="M144.363,423.826c-4.976,0-9.429-3.5-10.445-8.578l-15.085-75.418
		c-1.156-5.781,2.586-11.406,8.367-12.562c5.773-1.141,11.398,2.594,12.547,8.375l15.085,75.434
		c1.156,5.766-2.586,11.391-8.367,12.547C145.761,423.762,145.058,423.826,144.363,423.826z"/>
	<path style="fill:#E6E9ED;" d="M129.301,348.405c-0.695,0-1.398-0.078-2.102-0.203L51.772,333.11
		c-5.773-1.156-9.516-6.781-8.367-12.547c1.156-5.781,6.781-9.516,12.555-8.359l75.419,15.062c5.781,1.156,9.523,6.781,8.367,12.562
		C138.738,344.891,134.285,348.405,129.301,348.405z"/>
</g>
<path style="fill:#DA4453;" d="M408.455,413.701c-4.187,4.156-4.187,10.906,0,15.078c4.156,4.172,10.906,4.172,15.078,0
	c4.171-4.172,4.171-10.922,0-15.078C419.361,409.528,412.611,409.528,408.455,413.701z"/>
<path style="fill:#F5F7FA;" d="M167.003,300.016c-4.164-4.156-10.921-4.156-15.085,0l-72.302,72.311h-25.75
	c-5.891,0-10.664,4.781-10.664,10.656c0,5.906,4.773,10.67,10.664,10.67h19.507v19.516c0,5.875,4.773,10.656,10.664,10.656
	c5.891,0,10.664-4.781,10.664-10.656v-25.748l72.302-72.311C171.167,310.954,171.167,304.188,167.003,300.016z"/>
<path style="fill:#FFCE54;" d="M458.641,422.356c-5.875,0-10.656-4.781-10.656-10.672V303.907c0-5.891,4.781-10.672,10.656-10.672
	c5.906,0,10.688,4.781,10.688,10.672v107.777C469.329,417.576,464.548,422.356,458.641,422.356z"/>
<g>
	<path style="fill:#434A54;" d="M213.329,325.235h149.314c5.906,0,10.688-4.781,10.688-10.656c0-5.906-4.781-10.672-10.688-10.672
		H213.329c-5.89,0-10.671,4.766-10.671,10.672C202.658,320.454,207.439,325.235,213.329,325.235z"/>
	<path style="fill:#434A54;" d="M362.643,346.579H213.329c-5.89,0-10.671,4.779-10.671,10.654c0,5.906,4.781,10.672,10.671,10.672
		h149.314c5.906,0,10.688-4.766,10.688-10.672C373.331,351.358,368.55,346.579,362.643,346.579z"/>
	<path style="fill:#434A54;" d="M298.646,389.233h-85.317c-5.89,0-10.671,4.779-10.671,10.67s4.781,10.672,10.671,10.672h85.317
		c5.906,0,10.688-4.781,10.688-10.672S304.553,389.233,298.646,389.233z"/>
</g>
<g>
</g>
<g>
</g>
<g>
</g>
<g>
</g>
<g>
</g>
<g>
</g>
<g>
</g>
<g>
</g>
<g>
</g>
<g>
</g>
<g>
</g>
<g>
</g>
<g>
</g>
<g>
</g>
<g>
</g>
</svg>
